<svg xmlns="http://www.w3.org/2000/svg" viewBox="0 0 186 186" version="1.0"><defs><clipPath id="b"><path d="M.152.152H184.61V184.61H.152Zm0 0"/></clipPath><clipPath id="c"><path d="M49.84.148h85.32a50 50 0 0 1 9.695.957 49.5 49.5 0 0 1 13.727 4.91 50 50 0 0 1 4.184 2.508 50 50 0 0 1 7.53 6.18 50 50 0 0 1 6.18 7.531 49.7 49.7 0 0 1 4.59 8.59 49.4 49.4 0 0 1 2.829 9.32q.474 2.395.714 4.825.24 2.429.239 4.87v85.321a49.5 49.5 0 0 1-.953 9.695 49.5 49.5 0 0 1-4.915 13.727 49 49 0 0 1-5.41 8.102 50 50 0 0 1-3.273 3.613 50 50 0 0 1-7.531 6.18 49 49 0 0 1-4.184 2.503 48 48 0 0 1-4.406 2.086 49.4 49.4 0 0 1-9.32 2.829 49.5 49.5 0 0 1-9.695.953H49.84a49.5 49.5 0 0 1-9.695-.953 49.5 49.5 0 0 1-13.73-4.915 49.7 49.7 0 0 1-14.985-12.296 50 50 0 0 1-2.907-3.918 49.3 49.3 0 0 1-4.59-8.59 49.4 49.4 0 0 1-2.828-9.32 50 50 0 0 1-.957-9.696V49.84a50 50 0 0 1 .957-9.695 49.5 49.5 0 0 1 2.829-9.32 50 50 0 0 1 2.082-4.41 50 50 0 0 1 8.688-11.71 50 50 0 0 1 11.71-8.687 50 50 0 0 1 4.41-2.084 49.4 49.4 0 0 1 9.32-2.829A50 50 0 0 1 49.84.148m0 0"/></clipPath><clipPath id="d"><path d="M24.8 42H104v118H24.8Zm0 0"/></clipPath><clipPath id="e"><path d="M52 18.102h105V68H52Zm0 0"/></clipPath><clipPath id="a"><path d="M0 0h186v186H0z"/></clipPath></defs><g clip-path="url(#a)"><g clip-path="url(#b)"><g clip-path="url(#c)"><path fill="#121212" d="M.152 184.61H184.61V.151H.152Zm0 0"/></g></g><g clip-path="url(#d)"><path fill="#f9f9f9" d="M85.883 44.21c-19.024-4.698-37.875-.804-50.602 10.388a73.9 73.9 0 0 0-10.414 37.894c0 29.82 17.645 55.582 43.035 67.438-3.547-2.399-6.77-5.274-9.773-8.356-3.008-3.082-5.723-6.465-8.164-10.047-4.856-7.18-8.55-15.285-10.504-23.886-.98-4.29-1.668-8.688-1.836-13.114l-.09-1.66-.004-1.66c.008-1.105-.015-2.219.024-3.324.152-2.207.195-4.442.515-6.633.742-6.469 2.18-12.844 4.153-19.043a7.96 7.96 0 0 1-1.743-4.98 8.018 8.018 0 1 1 16.036 0c0 4.039-2.993 7.37-6.88 7.925-2.265 5.524-4.054 11.227-5.226 17.07-.472 2.012-.672 4.055-.992 6.094-.125 1.02-.184 2.047-.277 3.075l-.13 1.539-.042 1.547c-.192 4.12.11 8.257.691 12.355 1.153 8.215 4 16.219 8.117 23.566 2.075 3.668 4.446 7.192 7.149 10.465 2.699 3.274 5.644 6.383 8.972 9.067-3.734-4.34-6.84-9.38-9.234-15.09-10.008-23.867-5.559-53.7 4.098-71.547q.305-.569.62-1.125l.063-.11c7.118-12.421 20.496-20.816 35.813-20.816 1.535 0 3.055.106 4.562.274a67 67 0 0 0-17.937-7.305m0 0"/></g><g clip-path="url(#e)"><path fill="#ed5926" d="M152.504 40.547c-13.766-14.09-32.863-22.445-53.246-22.445-17.903 0-34.344 6.359-47.192 16.933a96.3 96.3 0 0 1 21.551-7.762c7.5-1.722 15.27-2.554 23.082-2.257 7.805.3 15.68 1.738 23.153 4.668 5.933 2.312 11.59 5.628 16.554 9.87a8 8 0 0 1 2.059-.277 8.018 8.018 0 1 1-8.016 8.016c0-.684.094-1.348.258-1.984-3.848-3.93-8.418-7.23-13.465-9.766-6.43-3.25-13.57-5.293-20.902-6.266-7.34-.972-14.883-.89-22.336.098a95.3 95.3 0 0 0-21.938 5.66c11.204-3.094 23.664-3.242 36.125-.164 16.895 4.172 31.145 13.414 40.493 25.813 4.433 5.875 12.242 8.043 18.968 5.054 9.938-4.422 12.453-17.414 4.852-25.191m0 0"/></g><path fill="#f9f9f9" d="M145.383 120.563c-6.059-2.989-13.371-2.055-18.367 2.496-7.446 6.785-17.239 10.687-27.758 10.687-15.934 0-29.774-9.086-36.645-22.344 2.024 7.422 5.414 14.457 9.989 20.453 4.562 5.98 10.668 10.72 17.605 12.747 3.453 1.03 7.047 1.464 10.64 1.363.9-.035 1.801-.145 2.696-.211.45-.043.894-.055 1.344-.129l1.34-.234c.89-.172 1.78-.282 2.664-.496l2.64-.696c4.864-1.34 9.547-3.383 14.07-5.797.18-4.27 3.688-7.675 8-7.675a8.019 8.019 0 1 1 0 16.035 8 8 0 0 1-4.398-1.317c-5.2 2.196-10.598 3.996-16.242 5.008l-3.012.496c-1.008.145-2.039.188-3.054.281l-1.524.122c-.512.035-1.027.003-1.543.007-1.027-.015-2.05.004-3.074-.05-4.102-.258-8.184-1.145-11.984-2.68-3.805-1.535-7.293-3.75-10.29-6.43-3.003-2.68-5.527-5.797-7.628-9.12-4.176-6.673-6.903-14.087-8.239-21.677-.39 10.028 1.012 20.391 4.922 29.72 5.567 13.276 15.238 21.91 28.735 25.687.992.039 1.984.074 2.988.074 18.953 0 36.601-7.016 50.015-19.23 8.618-7.848 6.563-21.938-3.89-27.09m0 0"/></g></svg>