<svg xmlns="http://www.w3.org/2000/svg" viewBox="40 145 295 85" version="1.0"><defs><clipPath id="a"><path d="M49.305 164H87v55H49.305Zm0 0"/></clipPath><clipPath id="b"><path d="M62 152.8h49V176H62Zm0 0"/></clipPath><clipPath id="c"><path d="M66 196h44v26.55H66Zm0 0"/></clipPath></defs><g clip-path="url(#a)"><path fill="#f9f9f9" d="M77.797 164.977c-8.871-2.192-17.664-.375-23.598 4.843a34.45 34.45 0 0 0-4.855 17.672c0 13.906 8.226 25.922 20.066 31.45-1.652-1.118-3.156-2.458-4.555-3.895a34 34 0 0 1-3.808-4.688c-2.266-3.347-3.988-7.125-4.899-11.136-.457-2.004-.78-4.051-.855-6.118l-.043-.773v-.773c.004-.516-.012-1.036.008-1.551.074-1.031.09-2.07.242-3.094.344-3.016 1.016-5.992 1.938-8.879a3.73 3.73 0 0 1-.817-2.324 3.743 3.743 0 0 1 3.742-3.742 3.74 3.74 0 0 1 3.739 3.742 3.735 3.735 0 0 1-3.207 3.695c-1.06 2.574-1.895 5.235-2.438 7.961-.223.938-.316 1.89-.465 2.844-.058.473-.082.953-.129 1.43l-.058.722-.02.719c-.09 1.922.05 3.852.32 5.762.54 3.832 1.868 7.566 3.786 10.992a34 34 0 0 0 3.336 4.879c1.257 1.527 2.628 2.976 4.183 4.226-1.742-2.023-3.191-4.37-4.308-7.035-4.665-11.133-2.59-25.043 1.914-33.367q.14-.264.289-.523c.007-.02.02-.036.027-.055v.004c3.32-5.793 9.559-9.711 16.703-9.711.715 0 1.426.05 2.125.129a31.2 31.2 0 0 0-8.363-3.406m0 0"/></g><g clip-path="url(#b)"><path fill="#ed5926" d="M108.867 163.266A34.73 34.73 0 0 0 84.035 152.8c-8.347 0-16.015 2.965-22.008 7.894a45 45 0 0 1 10.051-3.617c3.496-.805 7.117-1.191 10.762-1.055 3.64.141 7.312.813 10.8 2.176a27 27 0 0 1 7.72 4.606c.308-.082.628-.13.96-.13a3.738 3.738 0 1 1-3.62 2.813c-1.794-1.832-3.927-3.37-6.278-4.554-3-1.516-6.328-2.47-9.75-2.922-3.422-.453-6.938-.414-10.414.047a44.6 44.6 0 0 0-10.23 2.636c5.222-1.441 11.035-1.511 16.847-.074 7.879 1.945 14.523 6.254 18.883 12.04 2.066 2.737 5.71 3.75 8.847 2.355 4.633-2.063 5.81-8.121 2.262-11.75m0 0"/></g><g clip-path="url(#c)"><path fill="#f9f9f9" d="M105.547 200.582c-2.828-1.39-6.238-.957-8.567 1.168-3.472 3.164-8.039 4.98-12.945 4.98-7.43 0-13.887-4.234-17.09-10.417.946 3.46 2.524 6.742 4.66 9.539 2.125 2.789 4.973 4.996 8.207 5.945 1.614.48 3.29.683 4.965.633.418-.016.84-.067 1.258-.098.207-.02.414-.027.625-.059l.625-.109c.414-.082.832-.133 1.242-.234l1.23-.32c2.27-.626 4.454-1.583 6.563-2.708a3.737 3.737 0 0 1 7.47.16 3.736 3.736 0 0 1-5.79 3.125c-2.422 1.024-4.941 1.864-7.574 2.336l-1.406.23c-.47.071-.95.087-1.422.134l-.711.054c-.239.016-.48.004-.719.004-.48-.007-.957.004-1.434-.023a18 18 0 0 1-5.59-1.25 16.4 16.4 0 0 1-4.8-3c-1.399-1.246-2.574-2.7-3.559-4.25-1.945-3.113-3.219-6.57-3.84-10.11-.183 4.676.473 9.508 2.297 13.86 2.594 6.191 7.106 10.219 13.399 11.98.464.016.925.036 1.394.036 8.84 0 17.07-3.274 23.324-8.97 4.02-3.66 3.063-10.23-1.812-12.636m0 0"/></g><path d="M153.665 208.219q-6.094.001-11-2.703-4.893-2.7-7.687-7.422-2.783-4.734-2.783-10.64-.001-5.919 2.782-10.641 2.796-4.735 7.718-7.422 4.934-2.702 11.016-2.703 4.765 0 8.703 1.593 3.95 1.594 6.734 4.735l-3.78 3.64c-3.056-3.207-6.86-4.812-11.423-4.812-3.011 0-5.734.68-8.172 2.031q-3.655 2.034-5.718 5.61-2.063 3.561-2.063 7.968t2.063 7.969q2.062 3.564 5.718 5.594t8.172 2.03c4.52 0 8.328-1.616 11.422-4.858l3.781 3.64q-2.781 3.142-6.763 4.766c-2.65 1.086-5.556 1.625-8.72 1.625m35.656-31.5c3.906 0 7.007 1.133 9.312 3.39q3.451 3.392 3.453 9.953v17.688h-5.562v-17.047q0-4.466-2.157-6.734-2.144-2.264-6.14-2.266c-3.024 0-5.403.883-7.14 2.64-1.743 1.762-2.61 4.29-2.61 7.579v15.828h-5.564v-43.031h5.563v16.64q1.748-2.202 4.562-3.422 2.813-1.218 6.281-1.218m30.566 0q6.388 0 9.781 3.14 3.389 3.13 3.39 9.328v18.563h-5.28v-4.062c-.93 1.437-2.25 2.53-3.97 3.28q-2.577 1.127-6.123 1.127-5.16-.001-8.267-2.486-3.093-2.496-3.094-6.562 0-4.06 2.953-6.516 2.953-2.468 9.391-2.469h8.813v-1.109q-.002-3.59-2.094-5.5-2.08-1.922-6.14-1.922-2.72.002-5.329.907c-1.742.593-3.21 1.398-4.406 2.406l-2.328-4.188q2.372-1.904 5.687-2.922 3.312-1.014 7.016-1.015m-1.266 27.094q3.187 0 5.5-1.422 2.327-1.419 3.36-4.032v-4.296H218.9q-7.077.001-7.078 4.75 0 2.33 1.797 3.671 1.793 1.33 5 1.329m38.701 2.14q-1.22 1.049-3.016 1.594-1.799.546-3.719.547-4.643 0-7.187-2.485-2.549-2.498-2.547-7.14v-16.875h-5.219v-4.578h5.219v-6.735h5.562v6.735h8.813v4.578h-8.813v16.64c0 1.668.414 2.95 1.25 3.844q1.248 1.33 3.563 1.328 2.56 0 4.36-1.453Zm3.711-28.937h5.563v30.734h-5.564Zm2.782-5.922q-1.627 0-2.704-1.047c-.71-.695-1.062-1.547-1.062-2.547 0-1.008.351-1.867 1.062-2.578.72-.719 1.618-1.078 2.704-1.078q1.624.001 2.703 1.015 1.077 1.018 1.078 2.516 0 1.58-1.078 2.656-1.08 1.065-2.703 1.063m22.278-2.141q-4.985 0-4.984 5.39v2.673h8.922v4.578h-8.813v26.156h-5.562v-26.156h-5.219v-4.578h5.219v-2.735q-.002-4.576 2.656-7.25 2.67-2.672 7.484-2.672 1.857 0 3.485.47 1.622.47 2.781 1.327l-1.672 4.235q-1.923-1.437-4.297-1.438m18.671 7.766q6.388 0 9.781 3.14 3.389 3.13 3.39 9.328v18.563h-5.28v-4.062c-.93 1.437-2.25 2.53-3.97 3.28q-2.577 1.127-6.123 1.127-5.16-.001-8.267-2.486-3.093-2.496-3.094-6.562 0-4.06 2.953-6.516 2.953-2.468 9.391-2.469h8.813v-1.109q-.002-3.59-2.094-5.5-2.08-1.922-6.14-1.922-2.72.002-5.329.907c-1.742.593-3.21 1.398-4.406 2.406l-2.328-4.188q2.372-1.904 5.687-2.922 3.312-1.014 7.016-1.015m-1.266 27.094q3.187 0 5.5-1.422 2.327-1.419 3.36-4.032v-4.296h-8.579q-7.077.001-7.078 4.75 0 2.33 1.797 3.671 1.793 1.33 5 1.329m0 0" fill="#fff"/></svg>